<?xml version="1.0" encoding="UTF-8" standalone="no"?>
<svg
   xmlns:dc="http://purl.org/dc/elements/1.1/"
   xmlns:cc="http://creativecommons.org/ns#"
   xmlns:rdf="http://www.w3.org/1999/02/22-rdf-syntax-ns#"
   xmlns:svg="http://www.w3.org/2000/svg"
   xmlns="http://www.w3.org/2000/svg"
   xmlns:sodipodi="http://sodipodi.sourceforge.net/DTD/sodipodi-0.dtd"
   xmlns:inkscape="http://www.inkscape.org/namespaces/inkscape"
   enable-background="new 0 0 56.693 56.693"
   height="56.693px"
   id="Layer_1"
   version="1.1"
   viewBox="0 0 56.693 56.693"
   width="56.693px"
   xml:space="preserve"
   inkscape:version="0.48.3.1 r9886"
   sodipodi:docname="googleplus.svg"><metadata
     id="metadata15"><rdf:RDF><cc:Work
         rdf:about=""><dc:format>image/svg+xml</dc:format><dc:type
           rdf:resource="http://purl.org/dc/dcmitype/StillImage" /></cc:Work></rdf:RDF></metadata><defs
     id="defs13" /><sodipodi:namedview
     pagecolor="#ffffff"
     bordercolor="#666666"
     borderopacity="1"
     objecttolerance="10"
     gridtolerance="10"
     guidetolerance="10"
     inkscape:pageopacity="0"
     inkscape:pageshadow="2"
     inkscape:window-width="687"
     inkscape:window-height="480"
     id="namedview11"
     showgrid="false"
     inkscape:zoom="4.1627714"
     inkscape:cx="28.3465"
     inkscape:cy="28.3465"
     inkscape:window-x="0"
     inkscape:window-y="0"
     inkscape:window-maximized="0"
     inkscape:current-layer="Layer_1" /><g
     id="g3"
     style="fill:#333333;fill-opacity:1"><path
       d="M23.761,27.96c0.629,0,1.16-0.248,1.57-0.717c0.645-0.732,0.928-1.936,0.76-3.215c-0.301-2.287-1.932-4.186-3.637-4.236   h-0.068c-0.604,0-1.141,0.246-1.551,0.715c-0.637,0.725-0.903,1.871-0.736,3.146c0.299,2.283,1.965,4.256,3.635,4.307H23.761z"
       id="path5"
       style="fill:#333333;fill-opacity:1" /><path
       d="M25.622,34.847c-0.168-0.113-0.342-0.232-0.521-0.355c-0.525-0.162-1.084-0.246-1.654-0.254h-0.072   c-2.625,0-4.929,1.592-4.929,3.406c0,1.971,1.972,3.518,4.491,3.518c3.322,0,5.006-1.145,5.006-3.404   c0-0.215-0.025-0.436-0.076-0.656C27.642,36.222,26.837,35.675,25.622,34.847z"
       id="path7"
       style="fill:#333333;fill-opacity:1" /><path
       d="M28.347,5.157c-13.601,0-24.625,11.023-24.625,24.623s11.025,24.625,24.625,24.625c13.598,0,24.623-11.025,24.623-24.625   S41.944,5.157,28.347,5.157z M26.106,43.179c-0.982,0.283-2.041,0.428-3.154,0.428c-1.238,0-2.43-0.143-3.54-0.424   c-2.15-0.541-3.74-1.57-4.48-2.895c-0.32-0.574-0.482-1.184-0.482-1.816c0-0.652,0.156-1.312,0.463-1.967   c1.18-2.51,4.283-4.197,7.722-4.197c0.035,0,0.068,0,0.1,0c-0.279-0.492-0.416-1.002-0.416-1.537c0-0.268,0.035-0.539,0.105-0.814   c-3.606-0.084-6.306-2.725-6.306-6.207c0-2.461,1.965-4.855,4.776-5.824c0.842-0.291,1.699-0.439,2.543-0.439h7.713   c0.264,0,0.494,0.17,0.576,0.42c0.084,0.252-0.008,0.525-0.221,0.68l-1.725,1.248c-0.104,0.074-0.229,0.115-0.357,0.115h-0.617   c0.799,0.955,1.266,2.316,1.266,3.848c0,1.691-0.855,3.289-2.41,4.506c-1.201,0.936-1.25,1.191-1.25,1.729   c0.016,0.295,0.854,1.252,1.775,1.904c2.152,1.523,2.953,3.014,2.953,5.508C31.14,40.04,29.163,42.292,26.106,43.179z    M43.528,29.948c0,0.334-0.273,0.605-0.607,0.605h-4.383v4.385c0,0.336-0.271,0.607-0.607,0.607h-1.248   c-0.336,0-0.607-0.271-0.607-0.607v-4.385H31.69c-0.332,0-0.605-0.271-0.605-0.605v-1.25c0-0.334,0.273-0.607,0.605-0.607h4.385   v-4.383c0-0.336,0.271-0.607,0.607-0.607h1.248c0.336,0,0.607,0.271,0.607,0.607v4.383h4.383c0.334,0,0.607,0.273,0.607,0.607   V29.948z"
       id="path9"
       style="fill:#333333;fill-opacity:1" /></g></svg>