<?xml version="1.0" encoding="UTF-8" standalone="no"?>
<svg
   xmlns:dc="http://purl.org/dc/elements/1.1/"
   xmlns:cc="http://creativecommons.org/ns#"
   xmlns:rdf="http://www.w3.org/1999/02/22-rdf-syntax-ns#"
   xmlns:svg="http://www.w3.org/2000/svg"
   xmlns="http://www.w3.org/2000/svg"
   xmlns:sodipodi="http://sodipodi.sourceforge.net/DTD/sodipodi-0.dtd"
   xmlns:inkscape="http://www.inkscape.org/namespaces/inkscape"
   enable-background="new 0 0 56.693 56.693"
   height="56.693px"
   id="Layer_1"
   version="1.1"
   viewBox="0 0 56.693 56.693"
   width="56.693px"
   xml:space="preserve"
   inkscape:version="0.48.3.1 r9886"
   sodipodi:docname="youtube.svg"><metadata
     id="metadata21"><rdf:RDF><cc:Work
         rdf:about=""><dc:format>image/svg+xml</dc:format><dc:type
           rdf:resource="http://purl.org/dc/dcmitype/StillImage" /></cc:Work></rdf:RDF></metadata><defs
     id="defs19" /><sodipodi:namedview
     pagecolor="#ffffff"
     bordercolor="#666666"
     borderopacity="1"
     objecttolerance="10"
     gridtolerance="10"
     guidetolerance="10"
     inkscape:pageopacity="0"
     inkscape:pageshadow="2"
     inkscape:window-width="687"
     inkscape:window-height="408"
     id="namedview17"
     showgrid="false"
     inkscape:zoom="4.1627714"
     inkscape:cx="28.3465"
     inkscape:cy="28.3465"
     inkscape:window-x="0"
     inkscape:window-y="0"
     inkscape:window-maximized="0"
     inkscape:current-layer="Layer_1" /><g
     id="g3"
     style="fill:#333333;fill-opacity:1"><polygon
       points="17.833,31.853 19.616,31.853 19.616,40.71 21.339,40.71 21.339,31.853 23.12,31.853 23.12,30.345 17.833,30.345     "
       id="polygon5"
       style="fill:#333333;fill-opacity:1" /><path
       d="M28.413,24.493c0.234,0,0.42-0.062,0.557-0.189c0.137-0.131,0.207-0.309,0.207-0.533v-4.59c0-0.184-0.07-0.334-0.211-0.445   c-0.141-0.115-0.324-0.172-0.553-0.172c-0.209,0-0.379,0.057-0.512,0.172c-0.131,0.111-0.195,0.262-0.195,0.445v4.59   c0,0.23,0.061,0.408,0.184,0.533C28.011,24.431,28.187,24.493,28.413,24.493z"
       id="path7"
       style="fill:#333333;fill-opacity:1" /><path
       d="M32.212,32.97c-0.238,0-0.473,0.061-0.705,0.182c-0.229,0.121-0.449,0.301-0.654,0.533v-3.34h-1.545V40.71h1.545v-0.586   c0.199,0.236,0.418,0.408,0.652,0.52c0.232,0.111,0.5,0.166,0.801,0.166c0.451,0,0.801-0.143,1.037-0.432   c0.24-0.291,0.361-0.705,0.361-1.246v-4.244c0-0.627-0.127-1.104-0.385-1.428C33.065,33.134,32.696,32.97,32.212,32.97z    M32.128,38.921c0,0.246-0.045,0.42-0.133,0.527c-0.088,0.109-0.225,0.162-0.412,0.162c-0.129,0-0.25-0.029-0.369-0.082   c-0.117-0.053-0.24-0.146-0.361-0.27v-4.764c0.104-0.107,0.209-0.186,0.314-0.234c0.105-0.053,0.215-0.076,0.324-0.076   c0.205,0,0.365,0.066,0.477,0.197c0.107,0.135,0.16,0.33,0.16,0.59V38.921z"
       id="path9"
       style="fill:#333333;fill-opacity:1" /><path
       d="M26.628,38.874c-0.143,0.164-0.301,0.299-0.473,0.408c-0.172,0.107-0.316,0.16-0.426,0.16   c-0.145,0-0.248-0.039-0.314-0.121c-0.062-0.08-0.096-0.211-0.096-0.391v-5.867h-1.527v6.395c0,0.457,0.09,0.793,0.268,1.025   c0.182,0.227,0.445,0.34,0.799,0.34c0.287,0,0.584-0.078,0.889-0.242c0.305-0.166,0.598-0.4,0.881-0.709v0.838h1.529v-7.646h-1.529   V38.874z"
       id="path11"
       style="fill:#333333;fill-opacity:1" /><path
       d="M28.347,5.155c-13.6,0-24.625,11.025-24.625,24.625c0,13.602,11.025,24.625,24.625,24.625   c13.6,0,24.625-11.023,24.625-24.625C52.972,16.18,41.946,5.155,28.347,5.155z M32.325,17.317h1.719v6.459   c0,0.201,0.039,0.344,0.111,0.432c0.07,0.09,0.188,0.137,0.35,0.137c0.125,0,0.285-0.061,0.48-0.178   c0.191-0.121,0.369-0.271,0.529-0.457v-6.393h1.723v8.424h-1.723v-0.93c-0.314,0.342-0.645,0.605-0.99,0.783   c-0.342,0.178-0.674,0.27-0.998,0.27c-0.398,0-0.697-0.127-0.9-0.379c-0.199-0.248-0.301-0.623-0.301-1.129V17.317z M25.935,19.243   c0-0.65,0.23-1.17,0.693-1.561c0.465-0.383,1.088-0.578,1.869-0.578c0.713,0,1.295,0.205,1.752,0.611   c0.453,0.406,0.68,0.934,0.68,1.578v4.35c0,0.723-0.223,1.287-0.666,1.695c-0.449,0.408-1.062,0.613-1.844,0.613   c-0.752,0-1.355-0.211-1.807-0.631c-0.451-0.426-0.678-0.996-0.678-1.711V19.243z M21.247,14.323l1.258,4.562h0.123l1.197-4.562   h1.969l-2.254,6.682v4.737h-1.938v-4.526l-2.307-6.893H21.247z M43.786,38.356c0,3.047-2.471,5.52-5.518,5.52H19.092   c-3.049,0-5.52-2.473-5.52-5.52v-4.438c0-3.049,2.471-5.52,5.52-5.52h19.176c3.047,0,5.518,2.471,5.518,5.52V38.356z"
       id="path13"
       style="fill:#333333;fill-opacity:1" /><path
       d="M36.827,32.874c-0.686,0-1.24,0.207-1.674,0.627c-0.432,0.416-0.65,0.959-0.65,1.617v3.438   c0,0.738,0.199,1.316,0.592,1.734c0.393,0.42,0.932,0.631,1.617,0.631c0.762,0,1.334-0.197,1.715-0.592   c0.387-0.398,0.576-0.988,0.576-1.773v-0.393h-1.572v0.348c0,0.451-0.053,0.742-0.152,0.873s-0.277,0.197-0.531,0.197   c-0.244,0-0.416-0.076-0.518-0.23c-0.1-0.158-0.148-0.436-0.148-0.84v-1.439h2.922v-1.953c0-0.723-0.186-1.277-0.562-1.666   C38.065,33.067,37.526,32.874,36.827,32.874z M37.431,35.882h-1.35v-0.773c0-0.32,0.049-0.553,0.156-0.686   c0.107-0.143,0.281-0.211,0.525-0.211c0.23,0,0.404,0.068,0.508,0.211c0.105,0.133,0.16,0.365,0.16,0.686V35.882z"
       id="path15"
       style="fill:#333333;fill-opacity:1" /></g></svg>